<?xml version="1.0" encoding="UTF-8"?>
<svg id="Layer_2" data-name="Layer 2" xmlns="http://www.w3.org/2000/svg" viewBox="0 0 150 150">
  <defs>
    <style>
      .cls-1 {
        fill: #d1d3d4;
        stroke-width: 0px;
      }
    </style>
  </defs>
  <g id="Layer_1-2" data-name="Layer 1">
    <path class="cls-1" d="M77.03.03C35.62-1.09,1.15,31.56.03,72.97c-1.12,41.41,31.54,75.88,72.95,77,41.41,1.12,75.88-31.54,77-72.95C151.09,35.62,118.44,1.15,77.03.03ZM22.27,49.63c.96-16.82,21.02-27.17,36.06-18.61,5.41,3.08,9.3,7.44,11.13,13.42.54,1.77,1.46,2.05,3.07,2.04,16.24-.05,32.47-.03,48.71-.03.89,0,1.78-.04,2.67.03,3.38.25,5.41,2.29,5.43,5.39.02,3.07-2.01,5.16-5.44,5.37-2.12.13-4.26.03-6.78.03v13.94c-3.26,0-6.34.04-9.41-.02-2.48-.05-5.98.71-7.15-.59-1.33-1.47-.62-4.83-.71-7.36-.07-1.85-.02-3.71-.02-5.78-1.09-.07-1.95-.17-2.81-.17-8.21-.01-16.42.04-24.62-.04-1.74-.02-2.6.37-3.26,2.19-4.07,11.16-16.21,17.56-28.1,14.99-11.59-2.5-19.46-12.9-18.78-24.8ZM106.68,121.74c-9.34.4-21.1-4.32-25.33-18.39h-3.08c-16.24,0-32.48.02-48.72-.04-1.56,0-3.3-.16-4.64-.85-2.31-1.17-3.09-3.45-2.54-5.93.51-2.31,2.09-3.76,4.51-3.9,2.39-.13,4.79-.03,7.49-.03v-13.99c5.63,0,10.79-.06,15.94.1.51.02,1.36,1.42,1.39,2.21.15,3.73.07,7.47.07,11.4.97.07,1.75.18,2.53.18,8.39.01,16.78-.02,25.16.04,1.54.01,2.3-.39,2.87-1.97,3.63-10.11,14.21-16.88,24.45-15.81,12.08,1.27,20.73,9.14,22.46,20.45,2,13.08-9.08,25.95-22.54,26.53Z" />
    <path class="cls-1" d="M116.49,98.26c-.05,6.05-5.24,11.06-11.44,11.06s-11.42-5.07-11.43-11.08c0-6.07,5.1-10.97,11.44-10.95,6.35.01,11.48,4.95,11.43,10.98Z" />
    <path class="cls-1" d="M57.99,51.4c.04,6-5.2,11.13-11.38,11.11-6.3-.02-11.45-4.94-11.49-10.98-.03-6.1,5.38-11.29,11.63-11.17,6.04.12,11.2,5.19,11.25,11.04Z" />
  </g>
</svg>